<svg width="14" height="14" viewBox="0 0 14 14" fill="none" xmlns="http://www.w3.org/2000/svg">
<path d="M7 0C3.1552 0 0 3.55903 0 7.93386V11.6674C0 12.4395 0.551961 13.0675 1.23047 13.0675H1.64062V8.40055H1.23047C1.08598 8.40055 0.949238 8.43422 0.820312 8.48652V7.93386C0.820312 4.07358 3.60741 0.933395 7 0.933395C10.3926 0.933395 13.1797 4.07358 13.1797 7.93386V8.48652C13.0508 8.43422 12.914 8.40055 12.7695 8.40055H12.3594V13.0675H12.7695C13.448 13.0675 14 12.4395 14 11.6674V7.93386C14 3.55903 10.8448 0 7 0Z" fill="#3C3C3C"/>
<path d="M3.69135 7.46631H3.28119C2.82813 7.46631 2.46088 7.88419 2.46088 8.3997V13.0667C2.46088 13.5822 2.82813 14.0001 3.28119 14.0001H3.69135C3.91786 14.0001 4.1015 13.7911 4.1015 13.5334V7.93301C4.1015 7.67526 3.91786 7.46631 3.69135 7.46631Z" fill="#3C3C3C"/>
<path d="M10.7185 7.46631H10.3083C10.0818 7.46631 9.89819 7.67526 9.89819 7.93301V13.5334C9.89819 13.7911 10.0818 14.0001 10.3083 14.0001H10.7185C11.1716 14.0001 11.5388 13.5822 11.5388 13.0667V8.3997C11.5388 7.88419 11.1716 7.46631 10.7185 7.46631Z" fill="#3C3C3C"/>
</svg>
