<svg width="14" height="14" viewBox="0 0 14 14" fill="none" xmlns="http://www.w3.org/2000/svg">
<path d="M7 0C3.1402 0 0 3.1402 0 7C0 10.8598 3.1402 14 7 14C10.8598 14 14 10.8598 14 7C14 3.1402 10.8598 0 7 0ZM10.6314 7.19273L5.49803 10.6927C5.4586 10.7196 5.41263 10.7333 5.36667 10.7333C5.32933 10.7333 5.29177 10.7245 5.2577 10.7063C5.18117 10.6659 5.13333 10.5866 5.13333 10.5V3.5C5.13333 3.41343 5.18117 3.3341 5.2577 3.29373C5.33423 3.25313 5.42663 3.25873 5.49827 3.30727L10.6316 6.80727C10.6951 6.85067 10.7333 6.92277 10.7333 7C10.7333 7.07723 10.6951 7.14933 10.6314 7.19273Z" fill="#3C3C3C"/>
</svg>
